<svg xmlns="http://www.w3.org/2000/svg" width="368" height="138" fill="none" viewBox="0 0 368 138">
    <g filter="url(#a)">
        <mask id="b" width="320" height="90" x="24" y="16" maskUnits="userSpaceOnUse" style="mask-type:luminance">
            <path fill="#fff" d="M332 16H36c-6.627 0-12 5.373-12 12v66c0 6.627 5.373 12 12 12h296c6.627 0 12-5.373 12-12V28c0-6.627-5.373-12-12-12"/>
        </mask>
        <g mask="url(#b)">
            <path fill="#F05656" d="M332 16H36c-6.627 0-12 5.373-12 12v66c0 6.627 5.373 12 12 12h296c6.627 0 12-5.373 12-12V28c0-6.627-5.373-12-12-12"/>
            <path fill="#fff" d="M331.461 16.555 36 16.025c-6.627 0-12 5.348-12 11.975v66c0 6.628 5.373 12 12 12h296c6.627 0 11.592-5.372 11.592-12l-.131-66c0-6.627-5.373-11.445-12-11.445"/>
            <path fill="url(#c)" d="M331.461 16.555 36 16.025c-6.627 0-12 5.348-12 11.975v66c0 6.628 5.373 12 12 12h296c6.627 0 11.592-5.372 11.592-12l-.131-66c0-6.627-5.373-11.445-12-11.445"/>
            <path fill="#1F2328" d="M87.539 42.636q-.718 0-1.285.26-.56.26-.95.752-.39.485-.595 1.183-.206.69-.206 1.558 0 1.162.329 2.003.327.834.998 1.285.669.445 1.695.445.636 0 1.237-.123.602-.124 1.245-.335v1.394a6.4 6.4 0 0 1-1.231.349q-.622.11-1.435.11-1.532 0-2.543-.637-1.005-.636-1.504-1.79-.493-1.155-.493-2.708 0-1.134.315-2.078.315-.943.916-1.627.6-.69 1.483-1.06.89-.375 2.03-.375.753 0 1.477.17.732.165 1.354.472l-.575 1.354a8.4 8.4 0 0 0-1.087-.424 3.9 3.9 0 0 0-1.175-.178m11.15 4.943q0 .943-.247 1.674-.246.731-.718 1.238a3.2 3.2 0 0 1-1.135.765q-.662.26-1.497.26-.78 0-1.428-.26a3.3 3.3 0 0 1-1.128-.765 3.5 3.5 0 0 1-.732-1.238q-.26-.73-.26-1.674 0-1.25.431-2.12a3.07 3.07 0 0 1 1.244-1.333q.807-.457 1.921-.457 1.047 0 1.846.458t1.25 1.332.452 2.12m-5.49 0q0 .827.198 1.415.205.588.629.902.424.308 1.094.308.669 0 1.093-.308.424-.314.623-.902.198-.588.198-1.415t-.198-1.402q-.199-.58-.623-.882-.423-.307-1.1-.307-.997 0-1.456.67t-.458 1.92m9.878 3.937q-1.354 0-2.174-.984-.813-.991-.814-2.92 0-1.947.828-2.946.834-.997 2.194-.997.575 0 1.005.157.43.15.738.41.315.26.533.58h.076a16 16 0 0 1-.083-.608 8 8 0 0 1-.041-.745v-2.72h1.614v10.636h-1.258l-.287-1.032h-.069a2.414 2.414 0 0 1-1.257 1.012 2.9 2.9 0 0 1-1.005.157m.451-1.306q1.032 0 1.456-.594.424-.596.438-1.785v-.211q0-1.272-.411-1.949-.41-.683-1.497-.683-.868 0-1.326.704-.451.697-.451 1.948t.451 1.914q.458.657 1.34.656m8.743-6.541q1.012 0 1.736.416.725.417 1.115 1.183.389.765.389 1.832v.861h-5.051q.027 1.102.587 1.696.568.594 1.586.595.725 0 1.299-.137a7 7 0 0 0 1.197-.417v1.305a5.3 5.3 0 0 1-1.156.39 7 7 0 0 1-1.408.123q-1.115 0-1.962-.43-.84-.438-1.319-1.3-.472-.861-.472-2.139 0-1.272.431-2.16.43-.89 1.21-1.354.779-.465 1.818-.465m0 1.21q-.759 0-1.23.492-.465.492-.547 1.442h3.445a2.6 2.6 0 0 0-.191-1.005 1.46 1.46 0 0 0-.547-.684q-.363-.246-.93-.246m11.238 6.494-.957-3.52-.164-.63-.191-.759-.178-.731-.116-.52h-.055a16 16 0 0 1-.109.52q-.075.335-.171.731-.096.397-.191.773-.09.376-.164.642l-1.005 3.494h-1.764l-2.119-7.568h1.627l.984 3.76q.095.382.185.827a20 20 0 0 1 .266 1.51h.055a20 20 0 0 1 .185-1.059q.061-.314.123-.588.061-.28.116-.45l1.162-4h1.757l1.114 4q.075.258.164.655.089.39.157.787.075.39.096.649h.055q.027-.233.095-.629.076-.404.171-.854.096-.459.199-.848l1.004-3.76h1.6l-2.133 7.568zm8.197-7.704q1.435 0 2.167.635.738.636.738 1.983v5.092h-1.142l-.307-1.073h-.055a4 4 0 0 1-.663.677q-.342.267-.793.396-.445.137-1.087.137-.676 0-1.21-.246a1.93 1.93 0 0 1-.841-.766q-.307-.512-.307-1.298 0-1.17.868-1.757.875-.588 2.639-.65l1.312-.047v-.397q0-.786-.369-1.121-.362-.335-1.026-.335-.567 0-1.1.164-.534.165-1.039.403l-.52-1.135a5.8 5.8 0 0 1 1.258-.478 5.9 5.9 0 0 1 1.477-.184m1.312 4.094-.977.034q-1.203.041-1.689.41-.485.37-.485 1.012 0 .56.335.82.334.254.882.253.834 0 1.38-.471.554-.479.554-1.402zm7.677-4.094a4.6 4.6 0 0 1 .807.075l-.151 1.504a2 2 0 0 0-.355-.062 4 4 0 0 0-.369-.02q-.432 0-.821.143a1.9 1.9 0 0 0-.69.424 1.9 1.9 0 0 0-.472.704q-.171.424-.171.984v3.958h-1.613v-7.567h1.258l.219 1.333h.075q.225-.404.56-.738.336-.335.766-.533.438-.206.957-.206m7.294 5.55q0 .745-.362 1.258-.363.513-1.06.78-.69.259-1.695.26-.794 0-1.367-.117a4.7 4.7 0 0 1-1.074-.342V49.67q.54.253 1.21.438.677.184 1.279.184.792 0 1.141-.246a.79.79 0 0 0 .349-.67.7.7 0 0 0-.144-.437q-.136-.199-.519-.403a10 10 0 0 0-1.108-.506 9 9 0 0 1-1.21-.574 2.1 2.1 0 0 1-.745-.69q-.252-.411-.253-1.047 0-1.005.793-1.524.8-.526 2.113-.526.696 0 1.312.143.622.137 1.217.403l-.506 1.21a7.6 7.6 0 0 0-1.032-.369 3.7 3.7 0 0 0-1.046-.15q-.623 0-.95.191a.6.6 0 0 0-.322.547q0 .267.158.451.156.184.54.37.388.183 1.08.457.677.26 1.169.547.499.28.765.69.267.41.267 1.06"/>
            <g clip-path="url(#d)">
                <path fill="#F05656" fill-rule="evenodd" d="M65.486 51.86c-.211.184-.47.276-.751.253a.96.96 0 0 1-.235.985.96.96 0 0 1-1.01.206.8.8 0 0 1-.469.641.86.86 0 0 1-.845-.114.7.7 0 0 1-.68.39c0 .16-.048.297-.142.435a1.396 1.396 0 0 1-1.784.71c.023.618-.47 1.145-1.127 1.168-.305 0-.61-.092-.845-.32a1.02 1.02 0 0 1-.892.618c-.4.023-.775-.183-.963-.527a.96.96 0 0 1-.986.344.98.98 0 0 1-.727-.733c-.282.114-.587.091-.822-.092a.79.79 0 0 1-.305-.756l-.306-.023a.644.644 0 0 1-.446-.756c-.21.206-.47.298-.774.32-.775.07-1.432-.458-1.503-1.168-.399.23-.892.184-1.268-.091a1.09 1.09 0 0 1-.422-1.169c-.564.07-1.08-.343-1.127-.893a1.1 1.1 0 0 1 .164-.664c-.516-.07-.892-.55-.821-1.054a.88.88 0 0 1 .352-.596.79.79 0 0 1-.305-.756.78.78 0 0 1 .54-.618.65.65 0 0 1 .046-.87h.024a1.345 1.345 0 0 1-.164-2.245c-.4-.23-.634-.665-.564-1.1.047-.459.376-.825.822-.963a1 1 0 0 1-.07-1.076c.187-.344.586-.55.985-.504a.9.9 0 0 1 .212-.986.96.96 0 0 1 1.01-.206.78.78 0 0 1 .492-.641.82.82 0 0 1 .822.114.685.685 0 0 1 .68-.412l.024.069c0-.436.235-.848.61-1.1a1.38 1.38 0 0 1 1.268-.137l.07-.39c.118-.366.447-.641.823-.733s.774.023 1.08.275c.14-.367.493-.618.915-.641.4-.023.775.183.963.55a.96.96 0 0 1 .986-.344c.375.091.657.39.727.733a.82.82 0 0 1 .822.114c.235.184.352.482.282.756a.664.664 0 0 1 .775.504.46.46 0 0 1 0 .252c.21-.206.47-.297.774-.343.775-.046 1.409.48 1.48 1.191a1.2 1.2 0 0 1 1.29.069c.376.275.54.756.423 1.191.564-.069 1.08.344 1.127.893.023.23-.047.482-.164.665.375.069.68.32.774.687a.9.9 0 0 1-.328.962.86.86 0 0 1 .328.481.875.875 0 0 1-.54.917.65.65 0 0 1-.046.87c.398.23.657.642.68 1.077.024.458-.187.87-.54 1.145a1.15 1.15 0 0 1 .54 1.306c-.117.367-.399.641-.775.756.306.458.235 1.054-.164 1.375m3.498-15.623-9.766-5.498a5.74 5.74 0 0 0-5.635 0l-9.766 5.498C42.08 37.222 41 39.032 41 41.002v10.996c0 1.97 1.08 3.78 2.817 4.765l9.767 5.498a5.74 5.74 0 0 0 5.634 0l9.766-5.498c1.738-.985 2.817-2.795 2.817-4.765V40.98c0-1.947-1.08-3.757-2.817-4.742m-20.096 8.568c.282.367.352.848.188 1.283.563.046 1.01.48 1.056 1.03a1.07 1.07 0 0 1 1.221.62c.423-.298 1.033-.23 1.338.206l.047.045.118-.114a.79.79 0 0 1 .962-.046.86.86 0 0 1 .212-.344c.258-.206.587-.229.845-.045a.43.43 0 0 1 .352-.298 1.4 1.4 0 0 1-.188-.596v.023c-.235.069-.47-.046-.54-.252 0-.023 0-.023-.023-.046-.212.115-.47.138-.681.023a.71.71 0 0 1-.376-.55c-.14.046-.352.069-.516 0a.76.76 0 0 1-.493-.939.96.96 0 0 1-.869-.458c-.188-.298-.164-.665.024-.962a1.03 1.03 0 0 1-.752-.78.97.97 0 0 1 .352-1.007 1.11 1.11 0 0 1-.14-1.512c-.028 0-.047-.008-.063-.015a.1.1 0 0 0-.031-.008.75.75 0 0 1-.4.481c-.187.114-.422.114-.633.069-.024.48-.446.87-.94.893.142.252.165.573.048.848a1.03 1.03 0 0 1-.634.572c.375.459.352 1.1-.07 1.512.21 0 .422.138.586.367m6.926 5.521a.92.92 0 0 0-.845 1.03 1.096 1.096 0 0 0-1.198.688 1.164 1.164 0 0 0-1.432.39l-.023-.023c-.47-.573-1.338-.642-1.925-.184-.141-.55-.728-.916-1.315-.824a1 1 0 0 0-.211-.802 1.05 1.05 0 0 0-.752-.39c.259-.412.118-.962-.305-1.237.188-.183.305-.458.235-.733a.8.8 0 0 0-.235-.435.34.34 0 0 0 .141-.046c.258.481.845.71 1.385.55.047.39.329.687.681.825s.751.068 1.056-.184c.141.252.376.459.681.504.305.046.61-.045.822-.229.07-.045.188-.16.211-.252.188.23.493.298.775.23a.78.78 0 0 0 .563-.573c.235.114.493.137.728 0a.7.7 0 0 0 .352-.619c.118.046.282 0 .376-.091a.5.5 0 0 0 .164-.275c.212.114.446.183.681.183-.047.069-.047.16-.047.229.024.092.047.183.118.229a.69.69 0 0 0-.376.733c0 .115.094.252.188.344-.329.114-.517.48-.446.825l.023.137zm2.019-8.682c.023.252-.047.526-.235.71a.92.92 0 0 1-.704.32l.023.138c.07.344-.094.71-.422.825h-.024c.282.274.282.71 0 .962a.4.4 0 0 1-.164.114c.07.092.117.184.094.298.234 0 .493.069.704.206a.43.43 0 0 1 .493-.229c0-.252.117-.48.352-.618s.493-.115.728 0c0-.16.094-.298.235-.413.352-.275.821-.252 1.08.069a.98.98 0 0 1 1.29-.39c.165.092.306.23.4.39.305-.252.704-.32 1.056-.183s.634.435.681.824a1.136 1.136 0 0 1 1.385.55l.118-.068a.783.783 0 0 1-.047-1.123l.019-.025c.008-.012.013-.02.028-.02-.423-.276-.564-.825-.305-1.238a.95.95 0 0 1-.775-.39 1.03 1.03 0 0 1-.212-.824c-.586.092-1.173-.275-1.314-.825a1.4 1.4 0 0 1-1.925-.206 1.16 1.16 0 0 1-1.456.367c-.094.526-.587.847-1.103.779m-5.118 1.328a1.03 1.03 0 0 0-.094-1.374c.47-.344.61-.94.376-1.42.75-.138 1.244-.825 1.127-1.558a1.13 1.13 0 0 0 1.361-.733c.235.183.54.252.822.206s.54-.207.704-.459a.954.954 0 0 0 1.268.298c.07.275.235.527.54.619a.8.8 0 0 0 .516-.046l.024.252c-.47.069-.869.412-.963.87-.375-.137-.775-.091-1.08.161a1.06 1.06 0 0 0-.375 1.008c-.352 0-.681.16-.869.458-.164.298-.188.664 0 .962-.282.069-.517.275-.587.55a.76.76 0 0 0 .235.756.67.67 0 0 0-.352.573c0 .252.117.458.328.595-.07.115-.14.252-.117.39l.07.183c-.187.138-.352.32-.469.527-.117-.069-.258-.114-.4-.069a.65.65 0 0 0-.257-.595.76.76 0 0 0-.658-.115c.047-.32-.188-.641-.54-.733l-.14-.046a.89.89 0 0 0 .046-.733.96.96 0 0 0-.516-.527m11.08 7.743c.118-.275.353-.48.635-.572-.376-.459-.352-1.1.07-1.512a1.08 1.08 0 0 1-.61-.435h-.024a1.33 1.33 0 0 1-.187-1.283 1.14 1.14 0 0 1-1.057-1.031 1.054 1.054 0 0 1-1.197-.619.98.98 0 0 1-.752.183.95.95 0 0 1-.633-.435l-.118.115a.79.79 0 0 1-.939.068.9.9 0 0 1-.235.344.685.685 0 0 1-.845.046c-.023.114-.117.206-.235.275.094.183.165.412.165.641h.188c.164.046.258.16.281.298.212-.138.47-.138.705-.023.211.115.375.32.375.573a.67.67 0 0 1 .517 0c.399.137.61.55.493.939a.96.96 0 0 1 .939.458c.188.32.164.71-.047 1.008.352.115.61.413.68.78a1.04 1.04 0 0 1-.328.984 1.11 1.11 0 0 1 .14 1.512l.118.046a.69.69 0 0 1 .4-.481.77.77 0 0 1 .633-.069.94.94 0 0 1 .94-.893 1.15 1.15 0 0 1-.071-.917m-3.708-.687a1.03 1.03 0 0 0 .093 1.375c-.446.32-.61.916-.399 1.397-.75.138-1.244.825-1.126 1.558-.564-.138-1.198.16-1.362.733a1.06 1.06 0 0 0-.822-.23c-.282.047-.54.207-.704.46a.954.954 0 0 0-1.268-.299.8.8 0 0 0-.376-.527.82.82 0 0 0-.657-.068v.023l-.023-.253c.47-.068.868-.412.962-.87.188.069.376.069.564.046.587-.092.962-.619.868-1.191.282 0 .587-.115.775-.321a.94.94 0 0 0 .235-.802.55.55 0 0 0-.065-.254l-.03-.067a.755.755 0 0 0 .33-1.306c.093-.045.164-.137.234-.229.212-.32.094-.733-.234-.939l.047-.046c.14-.183.14-.435-.047-.595.21-.115.399-.275.516-.481a.44.44 0 0 0 .376.114c0 .23.094.435.281.573a.76.76 0 0 0 .658.114v.023a.71.71 0 0 0 .54.733l.14.046c-.117.252-.14.527-.046.756a.93.93 0 0 0 .54.527" clip-rule="evenodd"/>
            </g>
        </g>
    </g>
    <mask id="e" width="320" height="90" x="24" y="16" maskUnits="userSpaceOnUse" style="mask-type:alpha">
        <path fill="#fff" d="M332 16H36c-6.627 0-12 5.373-12 12v66c0 6.627 5.373 12 12 12h296c6.627 0 12-5.373 12-12V28c0-6.627-5.373-12-12-12"/>
    </mask>
    <g mask="url(#e)">
        <path fill="#F05656" d="M337.291 47.645c-1.959-2.772-6.506-3.942-9.268-1.577l-6.277 5.375c-18.395-9.089-36.791-18.163-55.181-27.256-8.186-4.051-12.455 9.639-4.383 13.625l19.888 9.818-14.033 26.958c-.094.194-.158.397-.247.595L231.063 58.3c-8.231-3.778-12.579 9.575-4.457 13.313l43.945 20.2 2.48 12.109a1350 1350 0 0 1-15.748-7.19c-8.147-3.803-15.272 8.291-7.081 12.113 10.071 4.701 20.24 9.183 30.36 13.765 6.287 2.836 11.925-3.635 10.487-8.469v-.099c-1.75-8.558-3.51-17.116-5.256-25.68.377-.46.754-.942 1.042-1.487l15.271-29.343 16.883 8.33c1.904.947 3.585.907 4.964.272a5.3 5.3 0 0 0 2.37-1.14c3.128-2.678 6.247-5.36 9.386-8.033 2.752-2.365 3.803-6.158 1.586-9.316z"/>
        <path fill="#F05656" d="M302.607 37.158a11.42 11.42 0 1 0 5.677-22.124l-.079-.015a11.418 11.418 0 0 0-5.677 22.119z"/>
    </g>
    <defs>
        <linearGradient id="c" x1="42.672" x2="329.228" y1="-54.697" y2="137.906" gradientUnits="userSpaceOnUse">
            <stop offset=".13" stop-opacity="0"/>
            <stop offset="1" stop-color="#F05656" stop-opacity=".1"/>
        </linearGradient>
        <clipPath id="d">
            <path fill="#fff" d="M41 30h31v33H41z"/>
        </clipPath>
        <filter id="a" width="368" height="138" x="0" y="0" color-interpolation-filters="sRGB" filterUnits="userSpaceOnUse">
            <feFlood flood-opacity="0" result="BackgroundImageFix"/>
            <feColorMatrix in="SourceAlpha" result="hardAlpha" values="0 0 0 0 0 0 0 0 0 0 0 0 0 0 0 0 0 0 127 0"/>
            <feOffset dy="1"/>
            <feGaussianBlur stdDeviation="1.5"/>
            <feColorMatrix values="0 0 0 0 0.121569 0 0 0 0 0.137255 0 0 0 0 0.156863 0 0 0 0.12 0"/>
            <feBlend in2="BackgroundImageFix" result="effect1_dropShadow_202_86"/>
            <feColorMatrix in="SourceAlpha" result="hardAlpha" values="0 0 0 0 0 0 0 0 0 0 0 0 0 0 0 0 0 0 127 0"/>
            <feOffset dy="8"/>
            <feGaussianBlur stdDeviation="12"/>
            <feColorMatrix values="0 0 0 0 0.258824 0 0 0 0 0.290196 0 0 0 0 0.32549 0 0 0 0.12 0"/>
            <feBlend in2="effect1_dropShadow_202_86" result="effect2_dropShadow_202_86"/>
            <feBlend in="SourceGraphic" in2="effect2_dropShadow_202_86" result="shape"/>
        </filter>
    </defs>
</svg>
