<svg xmlns="http://www.w3.org/2000/svg" width="368" height="136" fill="none"><g filter="url(#a)"><g clip-path="url(#b)"><rect width="320" height="88" x="24" y="16" fill="#fff" rx="12"/><circle cx="57.031" cy="47.031" r="17.03" fill="#136EF6"/><path fill="#fff" d="m53.539 43.289-2.063-.763-.01 12.868h2.102l-.03-5.655 6.659.037v5.618h2.086V42.526l-2.08.763v4.439H53.54v-4.44Z"/><path fill="#000" d="m56.836 38.645 5.447 2.079-5.408 2.079-5.408-2.079 5.369-2.079Z"/><path fill="#1F2328" d="M91.343 52.03h-1.792v-4.438h-4.396v4.439h-1.792v-9.996h1.792v4.032h4.396v-4.032h1.792v9.996Zm5.486-7.727c.681 0 1.265.14 1.75.42.495.27.877.662 1.148 1.175.27.505.406 1.12.406 1.848v.896h-5.012c.019.691.21 1.228.574 1.61.364.374.868.56 1.512.56a5.58 5.58 0 0 0 1.316-.14 7.517 7.517 0 0 0 1.204-.433v1.414c-.373.177-.76.308-1.162.392a7.138 7.138 0 0 1-1.442.125c-.737 0-1.395-.14-1.974-.42a3.169 3.169 0 0 1-1.344-1.301c-.317-.58-.476-1.298-.476-2.157 0-.867.145-1.596.434-2.184.299-.597.71-1.045 1.232-1.343.523-.309 1.134-.462 1.834-.462Zm0 1.302c-.467 0-.85.154-1.148.462-.29.298-.462.746-.518 1.343h3.262c0-.354-.06-.667-.182-.938a1.33 1.33 0 0 0-.518-.63c-.233-.158-.532-.237-.896-.237Zm6.447 2.548-2.506-3.71h2.002l1.652 2.576 1.652-2.576h2.002l-2.534 3.71 2.66 3.878h-2.002l-1.778-2.758-1.778 2.758h-2.002l2.632-3.878Zm7.96 3.878h-1.764V41.39h1.764v10.64Zm5.308-7.728c.681 0 1.265.14 1.75.42.495.27.877.662 1.148 1.175.271.505.406 1.12.406 1.848v.896h-5.012c.019.691.21 1.228.574 1.61.364.374.868.56 1.512.56.495 0 .933-.046 1.316-.14a7.53 7.53 0 0 0 1.204-.433v1.414a5.167 5.167 0 0 1-1.162.392 7.136 7.136 0 0 1-1.442.125c-.737 0-1.395-.14-1.974-.42a3.172 3.172 0 0 1-1.344-1.301c-.317-.58-.476-1.298-.476-2.157 0-.867.145-1.596.434-2.184.299-.597.709-1.045 1.232-1.343.523-.309 1.134-.462 1.834-.462Zm0 1.302c-.467 0-.849.154-1.148.462-.289.298-.462.746-.518 1.343h3.262c0-.354-.061-.667-.182-.938a1.332 1.332 0 0 0-.518-.63c-.233-.158-.532-.237-.896-.237Zm8.023 5.152c.224 0 .438-.02.644-.056.205-.047.396-.099.574-.154v1.316c-.187.084-.43.154-.728.21a4.388 4.388 0 0 1-.938.097c-.43 0-.822-.07-1.176-.21a1.81 1.81 0 0 1-.84-.755c-.206-.355-.308-.85-.308-1.484v-3.948h-1.022v-.77l1.12-.617.56-1.61h1.106v1.666h2.156v1.33h-2.156v3.934c0 .355.093.621.28.798.186.169.429.253.728.253Z"/><path fill="#656D76" d="M43.432 73.493c1.12 0 1.936.22 2.448.66.512.44.768 1.06.768 1.86 0 .352-.06.692-.18 1.02-.112.32-.3.608-.564.864-.264.256-.616.46-1.056.612-.44.144-.98.216-1.62.216h-.984v3.336h-1.08v-8.568h2.268Zm-.096.924h-1.092v3.384h.864c.544 0 .996-.056 1.356-.168.36-.12.628-.308.804-.564.176-.256.264-.592.264-1.008 0-.552-.176-.964-.528-1.236-.352-.272-.908-.408-1.668-.408Zm7.95 1.092c.12 0 .248.008.384.024.144.008.268.024.372.048l-.132.972a3.47 3.47 0 0 0-.696-.084c-.248 0-.484.052-.708.156a1.889 1.889 0 0 0-.6.444 2.041 2.041 0 0 0-.42.672c-.096.264-.144.56-.144.888v3.432h-1.056v-6.432h.864l.12 1.176h.048c.136-.24.3-.456.492-.648.192-.2.412-.356.66-.468.248-.12.52-.18.816-.18Zm7.314 3.324c0 .536-.072 1.012-.216 1.428a2.86 2.86 0 0 1-.6 1.044 2.502 2.502 0 0 1-.948.66c-.368.144-.78.216-1.236.216-.424 0-.816-.072-1.176-.216a2.658 2.658 0 0 1-.936-.66 3.154 3.154 0 0 1-.624-1.044 4.356 4.356 0 0 1-.216-1.428c0-.712.12-1.312.36-1.8.24-.496.584-.872 1.032-1.128.448-.264.98-.396 1.596-.396.584 0 1.096.132 1.536.396.448.256.796.632 1.044 1.128.256.488.384 1.088.384 1.8Zm-4.86 0c0 .504.064.944.192 1.32.136.368.344.652.624.852.28.2.636.3 1.068.3.432 0 .788-.1 1.068-.3.28-.2.484-.484.612-.852.136-.376.204-.816.204-1.32 0-.512-.068-.948-.204-1.308a1.697 1.697 0 0 0-.624-.828c-.272-.2-.628-.3-1.068-.3-.656 0-1.132.216-1.428.648-.296.432-.444 1.028-.444 1.788Zm8.814-3.324c.424 0 .804.08 1.14.24.344.16.636.404.876.732h.06l.144-.852h.84v6.54c0 .608-.104 1.116-.312 1.524a2.03 2.03 0 0 1-.948.936c-.424.208-.964.312-1.62.312a7.12 7.12 0 0 1-1.284-.108 4.22 4.22 0 0 1-1.032-.3v-.972c.208.104.436.192.684.264.248.08.516.14.804.18.288.04.584.06.888.06.552 0 .984-.164 1.296-.492.32-.32.48-.76.48-1.32v-.252c0-.096.004-.232.012-.408.008-.184.016-.312.024-.384h-.048a2.104 2.104 0 0 1-.84.732c-.328.16-.712.24-1.152.24-.832 0-1.484-.292-1.956-.876-.464-.584-.696-1.4-.696-2.448 0-.688.104-1.28.312-1.776.216-.504.52-.892.912-1.164.392-.272.864-.408 1.416-.408Zm.144.888c-.36 0-.668.096-.924.288-.248.192-.44.472-.576.84-.128.368-.192.816-.192 1.344 0 .792.144 1.4.432 1.824.296.416.724.624 1.284.624.328 0 .608-.04.84-.12.232-.088.424-.22.576-.396.152-.184.264-.416.336-.696.072-.28.108-.612.108-.996v-.252c0-.584-.068-1.056-.204-1.416-.128-.36-.332-.624-.612-.792-.28-.168-.636-.252-1.068-.252Zm7.959-.888c.12 0 .248.008.384.024.144.008.268.024.372.048l-.132.972a3.47 3.47 0 0 0-.696-.084c-.248 0-.484.052-.708.156a1.889 1.889 0 0 0-.6.444 2.041 2.041 0 0 0-.42.672c-.096.264-.144.56-.144.888v3.432h-1.056v-6.432h.864l.12 1.176h.048c.136-.24.3-.456.492-.648.192-.2.412-.356.66-.468.248-.12.52-.18.816-.18Zm4.158.012c.784 0 1.364.172 1.74.516.376.344.564.892.564 1.644v4.38h-.768l-.204-.912H76.1a3.66 3.66 0 0 1-.576.588 1.896 1.896 0 0 1-.672.336 3.313 3.313 0 0 1-.912.108c-.384 0-.732-.068-1.044-.204a1.607 1.607 0 0 1-.72-.624c-.176-.288-.264-.648-.264-1.08 0-.64.252-1.132.756-1.476.504-.352 1.28-.544 2.328-.576l1.092-.036v-.384c0-.536-.116-.908-.348-1.116-.232-.208-.56-.312-.984-.312-.336 0-.656.052-.96.156a6.297 6.297 0 0 0-.852.336l-.324-.792c.28-.152.612-.28.996-.384a4.264 4.264 0 0 1 1.2-.168Zm.312 3.432c-.8.032-1.356.16-1.668.384-.304.224-.456.54-.456.948 0 .36.108.624.324.792.224.168.508.252.852.252.544 0 .996-.148 1.356-.444.36-.304.54-.768.54-1.392v-.576l-.948.036Zm11.035-3.444c.728 0 1.272.188 1.632.564.36.368.54.968.54 1.8v4.188H87.29v-4.14c0-.504-.108-.884-.324-1.14-.208-.256-.536-.384-.984-.384-.624 0-1.072.18-1.344.54-.264.36-.396.884-.396 1.572v3.552h-1.044v-4.14c0-.336-.048-.616-.144-.84a1.03 1.03 0 0 0-.432-.516c-.192-.112-.44-.168-.744-.168-.432 0-.772.092-1.02.276-.248.176-.428.436-.54.78-.104.344-.156.768-.156 1.272v3.336h-1.056v-6.432h.852l.156.876h.06c.136-.224.3-.408.492-.552.2-.152.42-.264.66-.336.24-.072.488-.108.744-.108.496 0 .908.088 1.236.264.336.176.58.448.732.816h.06c.216-.368.508-.64.876-.816a2.77 2.77 0 0 1 1.188-.264Zm11.215 0c.728 0 1.272.188 1.632.564.36.368.54.968.54 1.8v4.188h-1.044v-4.14c0-.504-.108-.884-.324-1.14-.208-.256-.536-.384-.984-.384-.624 0-1.072.18-1.344.54-.264.36-.396.884-.396 1.572v3.552h-1.044v-4.14c0-.336-.048-.616-.144-.84a1.03 1.03 0 0 0-.432-.516c-.192-.112-.44-.168-.744-.168-.432 0-.772.092-1.02.276-.248.176-.428.436-.54.78-.104.344-.156.768-.156 1.272v3.336H90.32v-6.432h.852l.156.876h.06c.136-.224.3-.408.492-.552.2-.152.42-.264.66-.336.24-.072.488-.108.744-.108.496 0 .908.088 1.236.264.336.176.58.448.732.816h.06c.216-.368.508-.64.876-.816a2.77 2.77 0 0 1 1.188-.264Zm5.215.12v6.432h-1.056v-6.432h1.056Zm-.516-2.412c.16 0 .3.056.42.168.128.104.192.272.192.504 0 .224-.064.392-.192.504a.596.596 0 0 1-.42.168.626.626 0 0 1-.444-.168c-.12-.112-.18-.28-.18-.504 0-.232.06-.4.18-.504a.626.626 0 0 1 .444-.168Zm5.649 2.292c.768 0 1.348.188 1.74.564.392.368.588.968.588 1.8v4.188h-1.044v-4.116c0-.52-.116-.908-.348-1.164-.232-.256-.596-.384-1.092-.384-.712 0-1.204.2-1.476.6-.272.4-.408.976-.408 1.728v3.336h-1.056v-6.432h.852l.156.876h.06c.144-.224.32-.408.528-.552.216-.152.452-.264.708-.336.256-.072.52-.108.792-.108Zm6.602 0c.424 0 .804.08 1.14.24.344.16.636.404.876.732h.06l.144-.852h.84v6.54c0 .608-.104 1.116-.312 1.524a2.03 2.03 0 0 1-.948.936c-.424.208-.964.312-1.62.312a7.12 7.12 0 0 1-1.284-.108 4.22 4.22 0 0 1-1.032-.3v-.972c.208.104.436.192.684.264.248.08.516.14.804.18.288.04.584.06.888.06.552 0 .984-.164 1.296-.492.32-.32.48-.76.48-1.32v-.252c0-.096.004-.232.012-.408.008-.184.016-.312.024-.384h-.048a2.104 2.104 0 0 1-.84.732c-.328.16-.712.24-1.152.24-.832 0-1.484-.292-1.956-.876-.464-.584-.696-1.4-.696-2.448 0-.688.104-1.28.312-1.776.216-.504.52-.892.912-1.164.392-.272.864-.408 1.416-.408Zm.144.888c-.36 0-.668.096-.924.288-.248.192-.44.472-.576.84-.128.368-.192.816-.192 1.344 0 .792.144 1.4.432 1.824.296.416.724.624 1.284.624.328 0 .608-.04.84-.12.232-.088.424-.22.576-.396.152-.184.264-.416.336-.696.072-.28.108-.612.108-.996v-.252c0-.584-.068-1.056-.204-1.416-.128-.36-.332-.624-.612-.792-.28-.168-.636-.252-1.068-.252Zm12.264 3.888c0 .416-.104.764-.312 1.044-.208.28-.504.492-.888.636-.384.144-.84.216-1.368.216a5.49 5.49 0 0 1-1.164-.108 3.553 3.553 0 0 1-.852-.3v-.96c.256.128.564.248.924.36.368.104.74.156 1.116.156.536 0 .924-.084 1.164-.252a.823.823 0 0 0 .36-.696.745.745 0 0 0-.132-.432c-.088-.128-.248-.256-.48-.384a7.127 7.127 0 0 0-.972-.432 9.254 9.254 0 0 1-1.068-.48 1.972 1.972 0 0 1-.684-.576c-.16-.224-.24-.512-.24-.864 0-.544.22-.964.66-1.26.448-.296 1.032-.444 1.752-.444.392 0 .756.04 1.092.12a4.5 4.5 0 0 1 .96.312l-.36.84a3.906 3.906 0 0 0-.564-.204 3.71 3.71 0 0 0-.588-.144c-.2-.04-.404-.06-.612-.06-.432 0-.764.072-.996.216-.224.136-.336.324-.336.564a.7.7 0 0 0 .156.456c.104.12.276.24.516.36.248.112.576.248.984.408.408.152.756.308 1.044.468.288.16.508.356.66.588.152.224.228.508.228.852Zm4.135 1.896a3.265 3.265 0 0 1-1.524-.348c-.44-.232-.788-.592-1.044-1.08-.248-.488-.372-1.112-.372-1.872 0-.792.132-1.436.396-1.932s.62-.86 1.068-1.092a3.365 3.365 0 0 1 1.548-.348 4.1 4.1 0 0 1 .948.108c.304.064.552.144.744.24l-.324.876a6.244 6.244 0 0 0-.672-.204 2.976 2.976 0 0 0-.72-.096c-.432 0-.788.092-1.068.276-.28.184-.488.456-.624.816-.136.36-.204.808-.204 1.344 0 .512.068.948.204 1.308.136.36.34.632.612.816.272.184.612.276 1.02.276.352 0 .66-.036.924-.108a4.5 4.5 0 0 0 .744-.264v.936a2.834 2.834 0 0 1-.72.252 3.917 3.917 0 0 1-.936.096Zm4.241-6.564c0 .152-.008.308-.024.468-.008.16-.02.304-.036.432h.072c.136-.224.308-.408.516-.552.208-.144.44-.252.696-.324.256-.08.52-.12.792-.12.52 0 .952.084 1.296.252.352.16.616.412.792.756.176.344.264.792.264 1.344v4.188h-1.044v-4.116c0-.52-.116-.908-.348-1.164-.232-.256-.596-.384-1.092-.384-.48 0-.856.092-1.128.276-.272.176-.468.44-.588.792-.112.344-.168.768-.168 1.272v3.324h-1.056v-9.12h1.056v2.676Zm11.954 3.216c0 .536-.072 1.012-.216 1.428a2.86 2.86 0 0 1-.6 1.044 2.502 2.502 0 0 1-.948.66c-.368.144-.78.216-1.236.216-.424 0-.816-.072-1.176-.216a2.658 2.658 0 0 1-.936-.66 3.154 3.154 0 0 1-.624-1.044 4.356 4.356 0 0 1-.216-1.428c0-.712.12-1.312.36-1.8.24-.496.584-.872 1.032-1.128.448-.264.98-.396 1.596-.396.584 0 1.096.132 1.536.396.448.256.796.632 1.044 1.128.256.488.384 1.088.384 1.8Zm-4.86 0c0 .504.064.944.192 1.32.136.368.344.652.624.852.28.2.636.3 1.068.3.432 0 .788-.1 1.068-.3.28-.2.484-.484.612-.852.136-.376.204-.816.204-1.32 0-.512-.068-.948-.204-1.308a1.697 1.697 0 0 0-.624-.828c-.272-.2-.628-.3-1.068-.3-.656 0-1.132.216-1.428.648-.296.432-.444 1.028-.444 1.788Zm12.126 0c0 .536-.072 1.012-.216 1.428a2.86 2.86 0 0 1-.6 1.044 2.502 2.502 0 0 1-.948.66c-.368.144-.78.216-1.236.216-.424 0-.816-.072-1.176-.216a2.658 2.658 0 0 1-.936-.66 3.154 3.154 0 0 1-.624-1.044 4.356 4.356 0 0 1-.216-1.428c0-.712.12-1.312.36-1.8.24-.496.584-.872 1.032-1.128.448-.264.98-.396 1.596-.396.584 0 1.096.132 1.536.396.448.256.796.632 1.044 1.128.256.488.384 1.088.384 1.8Zm-4.86 0c0 .504.064.944.192 1.32.136.368.344.652.624.852.28.2.636.3 1.068.3.432 0 .788-.1 1.068-.3.28-.2.484-.484.612-.852.136-.376.204-.816.204-1.32 0-.512-.068-.948-.204-1.308a1.697 1.697 0 0 0-.624-.828c-.272-.2-.628-.3-1.068-.3-.656 0-1.132.216-1.428.648-.296.432-.444 1.028-.444 1.788Zm7.589 3.228h-1.056v-9.12h1.056v9.12Zm4.615-2.748v-.936h11.04v.936h-11.04Zm22.714-3.804c.728 0 1.272.188 1.632.564.36.368.54.968.54 1.8v4.188h-1.044v-4.14c0-.504-.108-.884-.324-1.14-.208-.256-.536-.384-.984-.384-.624 0-1.072.18-1.344.54-.264.36-.396.884-.396 1.572v3.552h-1.044v-4.14c0-.336-.048-.616-.144-.84a1.03 1.03 0 0 0-.432-.516c-.192-.112-.44-.168-.744-.168-.432 0-.772.092-1.02.276-.248.176-.428.436-.54.78-.104.344-.156.768-.156 1.272v3.336h-1.056v-6.432h.852l.156.876h.06c.136-.224.3-.408.492-.552.2-.152.42-.264.66-.336.24-.072.488-.108.744-.108.496 0 .908.088 1.236.264.336.176.58.448.732.816h.06c.216-.368.507-.64.876-.816a2.77 2.77 0 0 1 1.188-.264Zm3.15.12h1.128l1.392 3.66c.08.216.152.424.216.624.072.2.136.396.192.588.056.184.1.364.132.54h.048c.048-.2.124-.46.228-.78.104-.328.212-.656.324-.984l1.308-3.648h1.14l-2.772 7.32c-.152.4-.332.748-.54 1.044-.2.304-.448.536-.744.696-.288.168-.64.252-1.056.252-.192 0-.36-.012-.504-.036a3.3 3.3 0 0 1-.372-.06v-.84c.088.016.192.032.312.048.128.016.26.024.396.024.248 0 .46-.048.636-.144.184-.088.34-.22.468-.396a2.37 2.37 0 0 0 .324-.6l.336-.852-2.592-6.456Zm13.303-.12c.792 0 1.428.276 1.908.828.488.552.732 1.384.732 2.496 0 .728-.112 1.344-.336 1.848-.216.496-.524.872-.924 1.128-.392.248-.856.372-1.392.372-.328 0-.62-.044-.876-.132a2.433 2.433 0 0 1-.66-.336 2.792 2.792 0 0 1-.456-.468h-.072c.016.136.032.308.048.516.016.208.024.388.024.54v2.64h-1.056v-9.312h.864l.144.876h.048c.128-.184.28-.352.456-.504.184-.152.4-.272.648-.36.256-.088.556-.132.9-.132Zm-.192.888c-.432 0-.78.084-1.044.252-.264.16-.456.404-.576.732-.12.328-.184.744-.192 1.248v.204c0 .528.056.976.168 1.344.112.368.3.648.564.84.272.192.64.288 1.104.288.392 0 .712-.108.96-.324.256-.216.444-.508.564-.876.128-.376.192-.804.192-1.284 0-.736-.144-1.324-.432-1.764-.28-.44-.716-.66-1.308-.66Zm7.515-.888c.12 0 .248.008.384.024.144.008.268.024.372.048l-.132.972a3.47 3.47 0 0 0-.696-.084c-.248 0-.484.052-.708.156a1.889 1.889 0 0 0-.6.444 2.041 2.041 0 0 0-.42.672c-.096.264-.144.56-.144.888v3.432h-1.056v-6.432h.864l.12 1.176h.048c.136-.24.3-.456.492-.648.192-.2.412-.356.66-.468.248-.12.52-.18.816-.18Zm7.314 3.324c0 .536-.072 1.012-.216 1.428a2.86 2.86 0 0 1-.6 1.044 2.502 2.502 0 0 1-.948.66c-.368.144-.78.216-1.236.216-.424 0-.816-.072-1.176-.216a2.658 2.658 0 0 1-.936-.66 3.154 3.154 0 0 1-.624-1.044 4.356 4.356 0 0 1-.216-1.428c0-.712.12-1.312.36-1.8.24-.496.584-.872 1.032-1.128.448-.264.98-.396 1.596-.396.584 0 1.096.132 1.536.396.448.256.796.632 1.044 1.128.256.488.384 1.088.384 1.8Zm-4.86 0c0 .504.064.944.192 1.32.136.368.344.652.624.852.28.2.636.3 1.068.3.432 0 .788-.1 1.068-.3.28-.2.484-.484.612-.852.136-.376.204-.816.204-1.32 0-.512-.068-.948-.204-1.308a1.697 1.697 0 0 0-.624-.828c-.272-.2-.628-.3-1.068-.3-.656 0-1.132.216-1.428.648-.296.432-.444 1.028-.444 1.788Zm9.498-2.388h-1.62v5.616h-1.056v-5.616h-1.128v-.492l1.128-.36v-.372c0-.552.08-1 .24-1.344.168-.344.408-.596.72-.756.312-.16.688-.24 1.128-.24.256 0 .488.024.696.072.216.04.4.088.552.144l-.276.828a6.732 6.732 0 0 0-.444-.12 2.22 2.22 0 0 0-.516-.06c-.352 0-.616.12-.792.36-.168.232-.252.6-.252 1.104v.42h1.62v.816Zm2.22-.816v6.432h-1.056v-6.432h1.056Zm-.516-2.412c.16 0 .3.056.42.168.128.104.192.272.192.504 0 .224-.064.392-.192.504a.596.596 0 0 1-.42.168.626.626 0 0 1-.444-.168c-.12-.112-.18-.28-.18-.504 0-.232.06-.4.18-.504a.626.626 0 0 1 .444-.168Zm3.607 8.844h-1.056v-9.12h1.056v9.12Zm4.521-6.552c.552 0 1.024.12 1.416.36.4.24.704.58.912 1.02.216.432.324.94.324 1.524v.636h-4.404c.016.728.2 1.284.552 1.668.36.376.86.564 1.5.564.408 0 .768-.036 1.08-.108.32-.08.648-.192.984-.336v.924a4.723 4.723 0 0 1-.972.312c-.32.072-.7.108-1.14.108-.608 0-1.148-.124-1.62-.372a2.642 2.642 0 0 1-1.092-1.104c-.256-.496-.384-1.1-.384-1.812 0-.704.116-1.308.348-1.812.24-.504.572-.892.996-1.164.432-.272.932-.408 1.5-.408Zm-.012.864c-.504 0-.904.164-1.2.492-.288.32-.46.768-.516 1.344h3.276c0-.368-.056-.688-.168-.96a1.356 1.356 0 0 0-.516-.636c-.224-.16-.516-.24-.876-.24Zm10.743-2.88-3.192 8.568h-1.032l3.192-8.568h1.032Zm6.838 8.688a3.265 3.265 0 0 1-1.524-.348c-.44-.232-.788-.592-1.044-1.08-.248-.488-.372-1.112-.372-1.872 0-.792.132-1.436.396-1.932s.62-.86 1.068-1.092a3.365 3.365 0 0 1 1.548-.348 4.1 4.1 0 0 1 .948.108c.304.064.552.144.744.24l-.324.876a6.244 6.244 0 0 0-.672-.204 2.976 2.976 0 0 0-.72-.096c-.432 0-.788.092-1.068.276-.28.184-.488.456-.624.816-.136.36-.204.808-.204 1.344 0 .512.068.948.204 1.308.136.36.34.632.612.816.272.184.612.276 1.02.276.352 0 .66-.036.924-.108a4.5 4.5 0 0 0 .744-.264v.936a2.834 2.834 0 0 1-.72.252 3.917 3.917 0 0 1-.936.096Zm8.778-3.348c0 .536-.072 1.012-.216 1.428a2.86 2.86 0 0 1-.6 1.044 2.502 2.502 0 0 1-.948.66c-.368.144-.78.216-1.236.216-.424 0-.816-.072-1.176-.216a2.658 2.658 0 0 1-.936-.66 3.154 3.154 0 0 1-.624-1.044 4.356 4.356 0 0 1-.216-1.428c0-.712.12-1.312.36-1.8.24-.496.584-.872 1.032-1.128.448-.264.98-.396 1.596-.396.584 0 1.096.132 1.536.396.448.256.796.632 1.044 1.128.256.488.384 1.088.384 1.8Zm-4.86 0c0 .504.064.944.192 1.32.136.368.344.652.624.852.28.2.636.3 1.068.3.432 0 .788-.1 1.068-.3.28-.2.484-.484.612-.852.136-.376.204-.816.204-1.32 0-.512-.068-.948-.204-1.308a1.697 1.697 0 0 0-.624-.828c-.272-.2-.628-.3-1.068-.3-.656 0-1.132.216-1.428.648-.296.432-.444 1.028-.444 1.788Zm11.909-3.204v6.432h-.864l-.156-.852h-.048a1.74 1.74 0 0 1-.528.552 2.25 2.25 0 0 1-.708.312 2.956 2.956 0 0 1-.804.108c-.512 0-.944-.08-1.296-.24a1.687 1.687 0 0 1-.78-.768c-.176-.344-.264-.788-.264-1.332v-4.212h1.068v4.14c0 .512.116.896.348 1.152.232.256.592.384 1.08.384.48 0 .856-.088 1.128-.264.28-.184.476-.448.588-.792.12-.352.18-.776.18-1.272v-3.348h1.056Zm5.042-.12c.12 0 .248.008.384.024.144.008.268.024.372.048l-.132.972a3.47 3.47 0 0 0-.696-.084c-.248 0-.484.052-.708.156a1.889 1.889 0 0 0-.6.444 2.041 2.041 0 0 0-.42.672c-.096.264-.144.56-.144.888v3.432h-1.056v-6.432h.864l.12 1.176h.048c.136-.24.3-.456.492-.648.192-.2.412-.356.66-.468.248-.12.52-.18.816-.18Zm6.145 4.776c0 .416-.104.764-.312 1.044-.208.28-.504.492-.888.636-.384.144-.84.216-1.368.216a5.49 5.49 0 0 1-1.164-.108 3.553 3.553 0 0 1-.852-.3v-.96c.256.128.564.248.924.36.368.104.74.156 1.116.156.536 0 .924-.084 1.164-.252a.823.823 0 0 0 .36-.696.745.745 0 0 0-.132-.432c-.088-.128-.248-.256-.48-.384a7.127 7.127 0 0 0-.972-.432 9.254 9.254 0 0 1-1.068-.48 1.972 1.972 0 0 1-.684-.576c-.16-.224-.24-.512-.24-.864 0-.544.22-.964.66-1.26.448-.296 1.032-.444 1.752-.444.392 0 .756.04 1.092.12a4.5 4.5 0 0 1 .96.312l-.36.84a3.906 3.906 0 0 0-.564-.204 3.71 3.71 0 0 0-.588-.144c-.2-.04-.404-.06-.612-.06-.432 0-.764.072-.996.216-.224.136-.336.324-.336.564a.7.7 0 0 0 .156.456c.104.12.276.24.516.36.248.112.576.248.984.408.408.152.756.308 1.044.468.288.16.508.356.66.588.152.224.228.508.228.852Zm4.038-4.776c.552 0 1.024.12 1.416.36.4.24.704.58.912 1.02.216.432.324.94.324 1.524v.636h-4.404c.016.728.2 1.284.552 1.668.36.376.86.564 1.5.564.408 0 .768-.036 1.08-.108.32-.08.648-.192.984-.336v.924a4.723 4.723 0 0 1-.972.312c-.32.072-.7.108-1.14.108-.608 0-1.148-.124-1.62-.372a2.642 2.642 0 0 1-1.092-1.104c-.256-.496-.384-1.1-.384-1.812 0-.704.116-1.308.348-1.812.24-.504.572-.892.996-1.164.432-.272.932-.408 1.5-.408Zm-.012.864c-.504 0-.904.164-1.2.492-.288.32-.46.768-.516 1.344h3.276c0-.368-.056-.688-.168-.96a1.356 1.356 0 0 0-.516-.636c-.224-.16-.516-.24-.876-.24Zm8.49 3.912c0 .416-.104.764-.312 1.044-.208.28-.504.492-.888.636-.384.144-.84.216-1.368.216a5.49 5.49 0 0 1-1.164-.108 3.553 3.553 0 0 1-.852-.3v-.96c.256.128.564.248.924.36.368.104.74.156 1.116.156.536 0 .924-.084 1.164-.252a.823.823 0 0 0 .36-.696.745.745 0 0 0-.132-.432c-.088-.128-.248-.256-.48-.384a7.127 7.127 0 0 0-.972-.432 9.254 9.254 0 0 1-1.068-.48 1.972 1.972 0 0 1-.684-.576c-.16-.224-.24-.512-.24-.864 0-.544.22-.964.66-1.26.448-.296 1.032-.444 1.752-.444.392 0 .756.04 1.092.12a4.5 4.5 0 0 1 .96.312l-.36.84a3.906 3.906 0 0 0-.564-.204 3.71 3.71 0 0 0-.588-.144c-.2-.04-.404-.06-.612-.06-.432 0-.764.072-.996.216-.224.136-.336.324-.336.564a.7.7 0 0 0 .156.456c.104.12.276.24.516.36.248.112.576.248.984.408.408.152.756.308 1.044.468.288.16.508.356.66.588.152.224.228.508.228.852Z"/></g></g><defs><clipPath id="b"><rect width="320" height="88" x="24" y="16" fill="#fff" rx="12"/></clipPath><filter id="a" width="368" height="136" x="0" y="0" color-interpolation-filters="sRGB" filterUnits="userSpaceOnUse"><feFlood flood-opacity="0" result="BackgroundImageFix"/><feColorMatrix in="SourceAlpha" result="hardAlpha" values="0 0 0 0 0 0 0 0 0 0 0 0 0 0 0 0 0 0 127 0"/><feOffset dy="1"/><feGaussianBlur stdDeviation="1.5"/><feColorMatrix values="0 0 0 0 0.121569 0 0 0 0 0.137255 0 0 0 0 0.156863 0 0 0 0.12 0"/><feBlend in2="BackgroundImageFix" result="effect1_dropShadow_2_4962"/><feColorMatrix in="SourceAlpha" result="hardAlpha" values="0 0 0 0 0 0 0 0 0 0 0 0 0 0 0 0 0 0 127 0"/><feOffset dy="8"/><feGaussianBlur stdDeviation="12"/><feColorMatrix values="0 0 0 0 0.258824 0 0 0 0 0.290196 0 0 0 0 0.32549 0 0 0 0.12 0"/><feBlend in2="effect1_dropShadow_2_4962" result="effect2_dropShadow_2_4962"/><feBlend in="SourceGraphic" in2="effect2_dropShadow_2_4962" result="shape"/></filter></defs></svg>