<svg xmlns="http://www.w3.org/2000/svg" width="368" height="136" fill="none"><g filter="url(#a)"><g clip-path="url(#b)"><rect width="320" height="88" x="24" y="16" fill="#00A8FF" rx="12"/><path fill="url(#c)" d="M57.08 64.159c9.432 0 17.079-7.647 17.079-17.08 0-9.432-7.647-17.079-17.08-17.079C47.647 30 40 37.647 40 47.08c0 9.432 7.647 17.079 17.08 17.079Z"/><path fill="#fff" d="M57.08 64.159c9.432 0 17.079-7.647 17.079-17.08 0-9.432-7.647-17.079-17.08-17.079C47.647 30 40 37.647 40 47.08c0 9.432 7.647 17.079 17.08 17.079Z"/><path fill="#00A8FF" fill-rule="evenodd" d="M47.731 46.9c4.98-2.17 8.3-3.6 9.96-4.291 4.744-1.973 5.73-2.316 6.372-2.327.14-.003.457.033.661.199.173.14.22.33.243.462.023.133.052.436.029.672-.257 2.701-1.37 9.255-1.935 12.28-.24 1.28-.71 1.709-1.167 1.75-.992.092-1.745-.655-2.706-1.285-1.503-.985-2.352-1.598-3.811-2.56-1.687-1.111-.594-1.722.367-2.72.252-.261 4.622-4.236 4.707-4.597.01-.045.02-.213-.08-.302-.1-.088-.247-.058-.354-.034-.15.034-2.552 1.622-7.204 4.762-.681.468-1.299.696-1.852.684-.61-.013-1.783-.345-2.655-.628-1.07-.348-1.92-.532-1.845-1.122.038-.308.462-.622 1.27-.944Z" clip-rule="evenodd"/><path fill="#fff" d="M87.045 52.08h-1.792v-8.485h-2.87v-1.512h7.532v1.512h-2.87v8.484Zm6.3-7.729c.681 0 1.264.14 1.75.42.495.271.877.663 1.148 1.176.27.504.406 1.12.406 1.848v.896h-5.012c.019.691.21 1.228.574 1.61.364.374.868.56 1.512.56.495 0 .933-.046 1.316-.14a7.51 7.51 0 0 0 1.204-.434v1.414c-.373.178-.76.308-1.162.392a7.139 7.139 0 0 1-1.442.126c-.737 0-1.395-.14-1.974-.42a3.168 3.168 0 0 1-1.344-1.302c-.317-.578-.476-1.297-.476-2.156 0-.868.145-1.596.434-2.184.299-.597.71-1.045 1.232-1.344.523-.308 1.134-.462 1.834-.462Zm0 1.302c-.467 0-.85.154-1.148.462-.29.3-.462.747-.518 1.344h3.262c0-.354-.06-.667-.182-.938a1.331 1.331 0 0 0-.518-.63c-.234-.158-.532-.238-.896-.238Zm6.847 6.426h-1.764V41.44h1.764v10.64Zm5.307-7.728c.681 0 1.265.14 1.75.42.495.271.877.663 1.148 1.176.271.504.406 1.12.406 1.848v.896h-5.012c.019.691.21 1.228.574 1.61.364.374.868.56 1.512.56.495 0 .933-.046 1.316-.14a7.521 7.521 0 0 0 1.204-.434v1.414a5.162 5.162 0 0 1-1.162.392 7.136 7.136 0 0 1-1.442.126c-.737 0-1.395-.14-1.974-.42a3.172 3.172 0 0 1-1.344-1.302c-.317-.578-.476-1.297-.476-2.156 0-.868.145-1.596.434-2.184.299-.597.709-1.045 1.232-1.344.523-.308 1.134-.462 1.834-.462Zm0 1.302c-.467 0-.849.154-1.148.462-.289.3-.462.747-.518 1.344h3.262c0-.354-.061-.667-.182-.938a1.333 1.333 0 0 0-.518-.63c-.233-.158-.532-.238-.896-.238Zm7.631-1.302c.476 0 .905.094 1.288.28.383.187.705.467.966.84h.07l.168-.98h1.47v7.644c0 .72-.135 1.321-.406 1.806a2.592 2.592 0 0 1-1.218 1.12c-.541.252-1.218.378-2.03.378a9.315 9.315 0 0 1-1.498-.112 5.473 5.473 0 0 1-1.302-.35v-1.456c.289.122.588.224.896.308.317.094.644.164.98.21.336.047.681.07 1.036.07.579 0 1.017-.163 1.316-.49.308-.326.462-.793.462-1.4v-.196c0-.14.005-.303.014-.49.019-.186.033-.336.042-.448h-.056a2.475 2.475 0 0 1-.952.868c-.373.178-.803.266-1.288.266-.924 0-1.647-.345-2.17-1.036-.523-.69-.784-1.652-.784-2.884 0-.83.117-1.54.35-2.128.243-.588.588-1.036 1.036-1.344.448-.317.985-.476 1.61-.476Zm.462 1.442c-.355 0-.658.098-.91.294-.243.187-.429.467-.56.84-.121.374-.182.84-.182 1.4 0 .822.14 1.442.42 1.862.28.42.7.63 1.26.63.317 0 .588-.037.812-.112a1.23 1.23 0 0 0 .546-.392c.149-.186.261-.42.336-.7.075-.289.112-.634.112-1.036v-.266c0-.606-.065-1.092-.196-1.456-.131-.373-.331-.644-.602-.812-.261-.168-.607-.252-1.036-.252Zm9.73-1.442c.112 0 .242.005.392.014.149.01.275.028.378.056l-.154 1.638a2.346 2.346 0 0 0-.336-.042 2.396 2.396 0 0 0-1.162.112 2.014 2.014 0 0 0-.686.392 1.839 1.839 0 0 0-.476.658 2.52 2.52 0 0 0-.168.966v3.934h-1.764v-7.588h1.358l.252 1.316h.084c.149-.27.336-.513.56-.728.224-.224.48-.4.77-.532.298-.13.616-.196.952-.196Zm4.927 0c.98 0 1.722.215 2.226.644.513.42.77 1.083.77 1.988v5.096h-1.246l-.35-1.05h-.057c-.214.271-.438.5-.671.686a2.044 2.044 0 0 1-.785.378 3.856 3.856 0 0 1-1.063.126c-.448 0-.855-.084-1.219-.252a1.919 1.919 0 0 1-.84-.77c-.205-.354-.308-.798-.308-1.33 0-.784.285-1.372.854-1.764.579-.4 1.452-.62 2.619-.658l1.315-.042v-.378c0-.485-.116-.83-.349-1.036-.234-.205-.56-.308-.981-.308-.382 0-.751.056-1.105.168-.355.112-.7.243-1.036.392l-.561-1.232a5.86 5.86 0 0 1 1.275-.476 6.209 6.209 0 0 1 1.512-.182Zm.322 4.172c-.775.028-1.312.164-1.61.406-.299.234-.449.551-.449.952 0 .355.108.612.323.77.214.16.49.238.826.238.513 0 .947-.144 1.302-.434.354-.298.531-.737.531-1.316v-.644l-.923.028Zm13.578-4.172c.859 0 1.503.22 1.932.658.439.44.658 1.148.658 2.128v4.942h-1.764v-4.606c0-.56-.103-.98-.308-1.26-.205-.289-.532-.434-.98-.434-.616 0-1.055.201-1.316.602-.261.402-.392.985-.392 1.75v3.948h-1.764v-4.606c0-.373-.047-.686-.14-.938a1.065 1.065 0 0 0-.434-.56c-.187-.13-.429-.196-.728-.196-.42 0-.756.103-1.008.308-.252.196-.429.486-.532.868-.103.383-.154.854-.154 1.414v3.71h-1.764v-7.588h1.358l.252.994h.098c.159-.26.35-.476.574-.644.233-.168.49-.289.77-.364a3.1 3.1 0 0 1 .868-.126c.569 0 1.05.098 1.442.294.392.187.686.481.882.882h.14c.233-.41.56-.709.98-.896.429-.186.873-.28 1.33-.28ZM44.836 74.419c-.456 0-.868.08-1.236.24-.368.152-.68.38-.936.684-.256.296-.452.66-.588 1.092a4.707 4.707 0 0 0-.204 1.44c0 .704.108 1.316.324 1.836.224.52.552.92.984 1.2.44.28.988.42 1.644.42.376 0 .732-.032 1.068-.096a9.81 9.81 0 0 0 .984-.24v.936c-.32.12-.652.208-.996.264a7.5 7.5 0 0 1-1.212.084c-.872 0-1.6-.18-2.184-.54-.584-.36-1.024-.872-1.32-1.536-.288-.664-.432-1.444-.432-2.34 0-.648.088-1.24.264-1.776.184-.536.448-1 .792-1.392a3.469 3.469 0 0 1 1.296-.9c.512-.216 1.1-.324 1.764-.324.44 0 .864.044 1.272.132.408.088.772.212 1.092.372l-.432.912a6.693 6.693 0 0 0-.888-.324 3.664 3.664 0 0 0-1.056-.144Zm9.358 4.512c0 .536-.072 1.012-.216 1.428a2.86 2.86 0 0 1-.6 1.044 2.502 2.502 0 0 1-.948.66c-.368.144-.78.216-1.236.216-.424 0-.816-.072-1.176-.216a2.658 2.658 0 0 1-.936-.66 3.154 3.154 0 0 1-.624-1.044 4.356 4.356 0 0 1-.216-1.428c0-.712.12-1.312.36-1.8.24-.496.584-.872 1.032-1.128.448-.264.98-.396 1.596-.396.584 0 1.096.132 1.536.396.448.256.796.632 1.044 1.128.256.488.384 1.088.384 1.8Zm-4.86 0c0 .504.064.944.192 1.32.136.368.344.652.624.852.28.2.636.3 1.068.3.432 0 .788-.1 1.068-.3.28-.2.484-.484.612-.852.136-.376.204-.816.204-1.32 0-.512-.068-.948-.204-1.308a1.697 1.697 0 0 0-.624-.828c-.272-.2-.628-.3-1.068-.3-.656 0-1.132.216-1.428.648-.296.432-.444 1.028-.444 1.788Zm9.63-3.324c.768 0 1.348.188 1.74.564.392.368.588.968.588 1.8v4.188h-1.044v-4.116c0-.52-.116-.908-.348-1.164-.232-.256-.596-.384-1.092-.384-.712 0-1.204.2-1.476.6-.272.4-.408.976-.408 1.728v3.336h-1.056v-6.432h.852l.156.876h.06c.144-.224.32-.408.528-.552.216-.152.452-.264.708-.336.256-.072.52-.108.792-.108Zm6.47 5.808c.16 0 .324-.012.492-.036.168-.032.304-.064.408-.096v.804a1.68 1.68 0 0 1-.48.132c-.208.04-.408.06-.6.06a2.56 2.56 0 0 1-.936-.168 1.479 1.479 0 0 1-.684-.612c-.176-.288-.264-.692-.264-1.212v-3.744h-.912v-.504l.924-.42.42-1.368h.624v1.476h1.86v.816h-1.86v3.72c0 .392.092.684.276.876.192.184.436.276.732.276Zm4.624-5.796c.784 0 1.364.172 1.74.516.376.344.564.892.564 1.644v4.38h-.768l-.204-.912h-.048a3.66 3.66 0 0 1-.576.588 1.896 1.896 0 0 1-.672.336 3.313 3.313 0 0 1-.912.108c-.384 0-.732-.068-1.044-.204a1.607 1.607 0 0 1-.72-.624c-.176-.288-.264-.648-.264-1.08 0-.64.252-1.132.756-1.476.504-.352 1.28-.544 2.328-.576l1.092-.036v-.384c0-.536-.116-.908-.348-1.116-.232-.208-.56-.312-.984-.312-.336 0-.656.052-.96.156a6.297 6.297 0 0 0-.852.336l-.324-.792c.28-.152.612-.28.996-.384a4.264 4.264 0 0 1 1.2-.168Zm.312 3.432c-.8.032-1.356.16-1.668.384-.304.224-.456.54-.456.948 0 .36.108.624.324.792.224.168.508.252.852.252.544 0 .996-.148 1.356-.444.36-.304.54-.768.54-1.392v-.576l-.948.036Zm6.558 3.228a3.265 3.265 0 0 1-1.524-.348c-.44-.232-.788-.592-1.044-1.08-.248-.488-.372-1.112-.372-1.872 0-.792.132-1.436.396-1.932s.62-.86 1.068-1.092A3.365 3.365 0 0 1 77 75.607a4.1 4.1 0 0 1 .948.108c.304.064.552.144.744.24l-.324.876a6.244 6.244 0 0 0-.672-.204 2.976 2.976 0 0 0-.72-.096c-.432 0-.788.092-1.068.276-.28.184-.488.456-.624.816-.136.36-.204.808-.204 1.344 0 .512.068.948.204 1.308.136.36.34.632.612.816.272.184.612.276 1.02.276.352 0 .66-.036.924-.108a4.5 4.5 0 0 0 .744-.264v.936a2.834 2.834 0 0 1-.72.252 3.917 3.917 0 0 1-.936.096Zm5.334-.864c.16 0 .324-.012.492-.036.168-.032.304-.064.408-.096v.804a1.68 1.68 0 0 1-.48.132c-.208.04-.408.06-.6.06a2.56 2.56 0 0 1-.936-.168 1.479 1.479 0 0 1-.684-.612c-.176-.288-.264-.692-.264-1.212v-3.744h-.912v-.504l.924-.42.42-1.368h.624v1.476h1.86v.816h-1.86v3.72c0 .392.092.684.276.876.192.184.436.276.732.276Zm12.36-5.808c.729 0 1.273.188 1.633.564.36.368.54.968.54 1.8v4.188H95.75v-4.14c0-.504-.108-.884-.324-1.14-.208-.256-.536-.384-.984-.384-.624 0-1.072.18-1.344.54-.264.36-.396.884-.396 1.572v3.552h-1.044v-4.14c0-.336-.048-.616-.144-.84a1.03 1.03 0 0 0-.432-.516c-.192-.112-.44-.168-.744-.168-.432 0-.772.092-1.02.276-.248.176-.428.436-.54.78-.104.344-.156.768-.156 1.272v3.336h-1.056v-6.432h.852l.156.876h.06c.136-.224.3-.408.492-.552.2-.152.42-.264.66-.336.24-.072.488-.108.744-.108.496 0 .908.088 1.236.264.336.176.58.448.732.816h.06c.216-.368.508-.64.876-.816a2.77 2.77 0 0 1 1.188-.264Zm6.644 0c.552 0 1.024.12 1.416.36.4.24.704.58.912 1.02.216.432.324.94.324 1.524v.636h-4.404c.016.728.2 1.284.552 1.668.36.376.86.564 1.5.564.408 0 .768-.036 1.08-.108.32-.08.648-.192.984-.336v.924a4.723 4.723 0 0 1-.972.312c-.32.072-.7.108-1.14.108-.608 0-1.148-.124-1.62-.372a2.642 2.642 0 0 1-1.092-1.104c-.256-.496-.384-1.1-.384-1.812 0-.704.116-1.308.348-1.812.24-.504.572-.892.996-1.164.432-.272.932-.408 1.5-.408Zm-.012.864c-.504 0-.904.164-1.2.492-.288.32-.46.768-.516 1.344h3.276c0-.368-.056-.688-.168-.96a1.356 1.356 0 0 0-.516-.636c-.224-.16-.516-.24-.876-.24Zm5.237 3.276h-.684l-.3-6.156h1.284l-.3 6.156Zm-1.092 1.764c0-.296.072-.504.216-.624.144-.12.32-.18.528-.18.2 0 .372.06.516.18.152.12.228.328.228.624 0 .288-.076.496-.228.624a.75.75 0 0 1-.516.192.766.766 0 0 1-.528-.192c-.144-.128-.216-.336-.216-.624Z"/></g></g><defs><linearGradient id="c" x1="1747.94" x2="1747.94" y1="30" y2="3420.55" gradientUnits="userSpaceOnUse"><stop stop-color="#2AABEE"/><stop offset="1" stop-color="#229ED9"/></linearGradient><clipPath id="b"><rect width="320" height="88" x="24" y="16" fill="#fff" rx="12"/></clipPath><filter id="a" width="368" height="136" x="0" y="0" color-interpolation-filters="sRGB" filterUnits="userSpaceOnUse"><feFlood flood-opacity="0" result="BackgroundImageFix"/><feColorMatrix in="SourceAlpha" result="hardAlpha" values="0 0 0 0 0 0 0 0 0 0 0 0 0 0 0 0 0 0 127 0"/><feOffset dy="1"/><feGaussianBlur stdDeviation="1.5"/><feColorMatrix values="0 0 0 0 0.121569 0 0 0 0 0.137255 0 0 0 0 0.156863 0 0 0 0.12 0"/><feBlend in2="BackgroundImageFix" result="effect1_dropShadow_2_5023"/><feColorMatrix in="SourceAlpha" result="hardAlpha" values="0 0 0 0 0 0 0 0 0 0 0 0 0 0 0 0 0 0 127 0"/><feOffset dy="8"/><feGaussianBlur stdDeviation="12"/><feColorMatrix values="0 0 0 0 0.258824 0 0 0 0 0.290196 0 0 0 0 0.32549 0 0 0 0.12 0"/><feBlend in2="effect1_dropShadow_2_5023" result="effect2_dropShadow_2_5023"/><feBlend in="SourceGraphic" in2="effect2_dropShadow_2_5023" result="shape"/></filter></defs></svg>